<mxfile host="app.diagrams.net" agent="Mozilla/5.0 (Windows NT 10.0; Win64; x64) AppleWebKit/537.36 (KHTML, like Gecko) Chrome/128.0.0.0 Safari/537.36" version="24.7.8">
  <diagram id="aExya8mnSRRy_smH8df3" name="Page-1">
    <mxGraphModel dx="1050" dy="617" grid="1" gridSize="10" guides="1" tooltips="1" connect="1" arrows="1" fold="1" page="1" pageScale="1" pageWidth="827" pageHeight="1169" math="0" shadow="0">
      <root>
        <mxCell id="0" />
        <mxCell id="1" parent="0" />
        <mxCell id="Oqr2WZXRn9E8SFFf8cUU-51" style="rounded=0;orthogonalLoop=1;jettySize=auto;html=1;entryX=0;entryY=0.5;entryDx=0;entryDy=0;endArrow=none;endFill=0;" parent="1" source="Oqr2WZXRn9E8SFFf8cUU-1" target="Oqr2WZXRn9E8SFFf8cUU-49" edge="1">
          <mxGeometry relative="1" as="geometry" />
        </mxCell>
        <mxCell id="Oqr2WZXRn9E8SFFf8cUU-1" value="Undergraduate" style="rounded=0;whiteSpace=wrap;html=1;" parent="1" vertex="1">
          <mxGeometry x="480" y="535" width="120" height="60" as="geometry" />
        </mxCell>
        <mxCell id="Oqr2WZXRn9E8SFFf8cUU-2" value="Postgraduate" style="rounded=0;whiteSpace=wrap;html=1;" parent="1" vertex="1">
          <mxGeometry x="290" y="535" width="120" height="60" as="geometry" />
        </mxCell>
        <mxCell id="Oqr2WZXRn9E8SFFf8cUU-3" value="DegreeProgram" style="rounded=0;whiteSpace=wrap;html=1;" parent="1" vertex="1">
          <mxGeometry x="447.5" y="140" width="120" height="60" as="geometry" />
        </mxCell>
        <mxCell id="Oqr2WZXRn9E8SFFf8cUU-4" value="Course" style="rounded=0;whiteSpace=wrap;html=1;" parent="1" vertex="1">
          <mxGeometry x="160" y="110" width="120" height="60" as="geometry" />
        </mxCell>
        <mxCell id="Oqr2WZXRn9E8SFFf8cUU-5" value="Supervisor" style="rounded=0;whiteSpace=wrap;html=1;" parent="1" vertex="1">
          <mxGeometry x="290" y="701" width="120" height="60" as="geometry" />
        </mxCell>
        <mxCell id="Oqr2WZXRn9E8SFFf8cUU-62" style="edgeStyle=orthogonalEdgeStyle;rounded=0;orthogonalLoop=1;jettySize=auto;html=1;entryX=0.5;entryY=0;entryDx=0;entryDy=0;exitX=0.5;exitY=1;exitDx=0;exitDy=0;" parent="1" source="Oqr2WZXRn9E8SFFf8cUU-6" target="Oqr2WZXRn9E8SFFf8cUU-2" edge="1">
          <mxGeometry relative="1" as="geometry">
            <mxPoint x="437.5" y="440" as="sourcePoint" />
          </mxGeometry>
        </mxCell>
        <mxCell id="Oqr2WZXRn9E8SFFf8cUU-63" style="edgeStyle=orthogonalEdgeStyle;rounded=0;orthogonalLoop=1;jettySize=auto;html=1;entryX=0.5;entryY=0;entryDx=0;entryDy=0;exitX=0.5;exitY=1;exitDx=0;exitDy=0;" parent="1" source="Oqr2WZXRn9E8SFFf8cUU-6" target="Oqr2WZXRn9E8SFFf8cUU-1" edge="1">
          <mxGeometry relative="1" as="geometry">
            <mxPoint x="437.5" y="440" as="sourcePoint" />
          </mxGeometry>
        </mxCell>
        <mxCell id="Oqr2WZXRn9E8SFFf8cUU-65" style="edgeStyle=orthogonalEdgeStyle;rounded=0;orthogonalLoop=1;jettySize=auto;html=1;entryX=0.5;entryY=1;entryDx=0;entryDy=0;endArrow=ERone;endFill=0;startArrow=ERmany;startFill=0;" parent="1" source="Oqr2WZXRn9E8SFFf8cUU-6" target="Oqr2WZXRn9E8SFFf8cUU-3" edge="1">
          <mxGeometry relative="1" as="geometry">
            <mxPoint x="545" y="130" as="targetPoint" />
          </mxGeometry>
        </mxCell>
        <mxCell id="Oqr2WZXRn9E8SFFf8cUU-6" value="Student" style="rounded=0;whiteSpace=wrap;html=1;" parent="1" vertex="1">
          <mxGeometry x="447.5" y="365" width="120" height="60" as="geometry" />
        </mxCell>
        <mxCell id="Oqr2WZXRn9E8SFFf8cUU-16" style="edgeStyle=orthogonalEdgeStyle;rounded=0;orthogonalLoop=1;jettySize=auto;html=1;endArrow=none;endFill=0;" parent="1" source="Oqr2WZXRn9E8SFFf8cUU-9" edge="1">
          <mxGeometry relative="1" as="geometry">
            <mxPoint x="507.5" y="140" as="targetPoint" />
          </mxGeometry>
        </mxCell>
        <mxCell id="Oqr2WZXRn9E8SFFf8cUU-9" value="&lt;u&gt;degKey&lt;/u&gt;" style="ellipse;whiteSpace=wrap;html=1;" parent="1" vertex="1">
          <mxGeometry x="472.5" y="30" width="70" height="40" as="geometry" />
        </mxCell>
        <mxCell id="Oqr2WZXRn9E8SFFf8cUU-15" style="rounded=0;orthogonalLoop=1;jettySize=auto;html=1;entryX=0.5;entryY=0;entryDx=0;entryDy=0;endArrow=none;endFill=0;" parent="1" source="Oqr2WZXRn9E8SFFf8cUU-10" target="Oqr2WZXRn9E8SFFf8cUU-3" edge="1">
          <mxGeometry relative="1" as="geometry" />
        </mxCell>
        <mxCell id="Oqr2WZXRn9E8SFFf8cUU-10" value="degCode" style="ellipse;whiteSpace=wrap;html=1;" parent="1" vertex="1">
          <mxGeometry x="387.5" y="30" width="70" height="40" as="geometry" />
        </mxCell>
        <mxCell id="Oqr2WZXRn9E8SFFf8cUU-14" style="rounded=0;orthogonalLoop=1;jettySize=auto;html=1;entryX=0.5;entryY=0;entryDx=0;entryDy=0;endArrow=none;endFill=0;" parent="1" source="Oqr2WZXRn9E8SFFf8cUU-11" target="Oqr2WZXRn9E8SFFf8cUU-3" edge="1">
          <mxGeometry relative="1" as="geometry" />
        </mxCell>
        <mxCell id="Oqr2WZXRn9E8SFFf8cUU-11" value="degName" style="ellipse;whiteSpace=wrap;html=1;" parent="1" vertex="1">
          <mxGeometry x="307.5" y="30" width="70" height="40" as="geometry" />
        </mxCell>
        <mxCell id="Oqr2WZXRn9E8SFFf8cUU-18" style="rounded=0;orthogonalLoop=1;jettySize=auto;html=1;entryX=0.5;entryY=0;entryDx=0;entryDy=0;endArrow=none;endFill=0;" parent="1" source="Oqr2WZXRn9E8SFFf8cUU-12" target="Oqr2WZXRn9E8SFFf8cUU-3" edge="1">
          <mxGeometry relative="1" as="geometry" />
        </mxCell>
        <mxCell id="Oqr2WZXRn9E8SFFf8cUU-12" value="duration" style="ellipse;whiteSpace=wrap;html=1;" parent="1" vertex="1">
          <mxGeometry x="627.5" y="30" width="60" height="40" as="geometry" />
        </mxCell>
        <mxCell id="Oqr2WZXRn9E8SFFf8cUU-17" style="rounded=0;orthogonalLoop=1;jettySize=auto;html=1;entryX=0.5;entryY=0;entryDx=0;entryDy=0;endArrow=none;endFill=0;" parent="1" source="Oqr2WZXRn9E8SFFf8cUU-13" target="Oqr2WZXRn9E8SFFf8cUU-3" edge="1">
          <mxGeometry relative="1" as="geometry" />
        </mxCell>
        <mxCell id="Oqr2WZXRn9E8SFFf8cUU-13" value="faculty" style="ellipse;whiteSpace=wrap;html=1;" parent="1" vertex="1">
          <mxGeometry x="557.5" y="30" width="50" height="40" as="geometry" />
        </mxCell>
        <mxCell id="Oqr2WZXRn9E8SFFf8cUU-26" style="rounded=0;orthogonalLoop=1;jettySize=auto;html=1;entryX=0;entryY=0.5;entryDx=0;entryDy=0;endArrow=none;endFill=0;" parent="1" source="Oqr2WZXRn9E8SFFf8cUU-19" target="Oqr2WZXRn9E8SFFf8cUU-4" edge="1">
          <mxGeometry relative="1" as="geometry" />
        </mxCell>
        <mxCell id="Oqr2WZXRn9E8SFFf8cUU-19" value="&lt;u&gt;courseKey&amp;nbsp;&lt;/u&gt;" style="ellipse;whiteSpace=wrap;html=1;" parent="1" vertex="1">
          <mxGeometry x="20.5" y="115" width="80" height="50" as="geometry" />
        </mxCell>
        <mxCell id="Oqr2WZXRn9E8SFFf8cUU-25" style="rounded=0;orthogonalLoop=1;jettySize=auto;html=1;entryX=0;entryY=0.5;entryDx=0;entryDy=0;endArrow=none;endFill=0;exitX=1;exitY=0.5;exitDx=0;exitDy=0;" parent="1" source="Oqr2WZXRn9E8SFFf8cUU-20" target="Oqr2WZXRn9E8SFFf8cUU-4" edge="1">
          <mxGeometry relative="1" as="geometry" />
        </mxCell>
        <mxCell id="Oqr2WZXRn9E8SFFf8cUU-20" value="courseCode" style="ellipse;whiteSpace=wrap;html=1;" parent="1" vertex="1">
          <mxGeometry x="20.5" y="180" width="80" height="40" as="geometry" />
        </mxCell>
        <mxCell id="Oqr2WZXRn9E8SFFf8cUU-27" style="rounded=0;orthogonalLoop=1;jettySize=auto;html=1;entryX=0;entryY=0.5;entryDx=0;entryDy=0;endArrow=none;endFill=0;exitX=1;exitY=0.5;exitDx=0;exitDy=0;" parent="1" source="Oqr2WZXRn9E8SFFf8cUU-21" target="Oqr2WZXRn9E8SFFf8cUU-4" edge="1">
          <mxGeometry relative="1" as="geometry" />
        </mxCell>
        <mxCell id="Oqr2WZXRn9E8SFFf8cUU-21" value="courseName" style="ellipse;whiteSpace=wrap;html=1;" parent="1" vertex="1">
          <mxGeometry x="20.5" y="60" width="80" height="40" as="geometry" />
        </mxCell>
        <mxCell id="Oqr2WZXRn9E8SFFf8cUU-28" style="rounded=0;orthogonalLoop=1;jettySize=auto;html=1;entryX=0;entryY=0.5;entryDx=0;entryDy=0;endArrow=none;endFill=0;exitX=1;exitY=0.5;exitDx=0;exitDy=0;" parent="1" source="Oqr2WZXRn9E8SFFf8cUU-22" target="Oqr2WZXRn9E8SFFf8cUU-4" edge="1">
          <mxGeometry relative="1" as="geometry" />
        </mxCell>
        <mxCell id="Oqr2WZXRn9E8SFFf8cUU-22" value="department" style="ellipse;whiteSpace=wrap;html=1;" parent="1" vertex="1">
          <mxGeometry x="20.5" y="10" width="80" height="40" as="geometry" />
        </mxCell>
        <mxCell id="Oqr2WZXRn9E8SFFf8cUU-24" style="rounded=0;orthogonalLoop=1;jettySize=auto;html=1;entryX=0;entryY=0.5;entryDx=0;entryDy=0;endArrow=none;endFill=0;exitX=1;exitY=0.5;exitDx=0;exitDy=0;" parent="1" source="Oqr2WZXRn9E8SFFf8cUU-23" target="Oqr2WZXRn9E8SFFf8cUU-4" edge="1">
          <mxGeometry relative="1" as="geometry" />
        </mxCell>
        <mxCell id="Oqr2WZXRn9E8SFFf8cUU-23" value="credits" style="ellipse;whiteSpace=wrap;html=1;" parent="1" vertex="1">
          <mxGeometry x="20.5" y="230" width="80" height="40" as="geometry" />
        </mxCell>
        <mxCell id="Oqr2WZXRn9E8SFFf8cUU-34" style="rounded=0;orthogonalLoop=1;jettySize=auto;html=1;entryX=0.5;entryY=1;entryDx=0;entryDy=0;endArrow=none;endFill=0;" parent="1" source="Oqr2WZXRn9E8SFFf8cUU-29" target="Oqr2WZXRn9E8SFFf8cUU-5" edge="1">
          <mxGeometry relative="1" as="geometry" />
        </mxCell>
        <mxCell id="Oqr2WZXRn9E8SFFf8cUU-29" value="&lt;u&gt;supKey&amp;nbsp;&lt;/u&gt;" style="ellipse;whiteSpace=wrap;html=1;" parent="1" vertex="1">
          <mxGeometry x="276" y="791" width="70" height="40" as="geometry" />
        </mxCell>
        <mxCell id="Oqr2WZXRn9E8SFFf8cUU-33" style="rounded=0;orthogonalLoop=1;jettySize=auto;html=1;entryX=0.5;entryY=1;entryDx=0;entryDy=0;endArrow=none;endFill=0;" parent="1" source="Oqr2WZXRn9E8SFFf8cUU-30" target="Oqr2WZXRn9E8SFFf8cUU-5" edge="1">
          <mxGeometry relative="1" as="geometry" />
        </mxCell>
        <mxCell id="Oqr2WZXRn9E8SFFf8cUU-30" value="title" style="ellipse;whiteSpace=wrap;html=1;" parent="1" vertex="1">
          <mxGeometry x="206" y="796" width="55" height="30" as="geometry" />
        </mxCell>
        <mxCell id="Oqr2WZXRn9E8SFFf8cUU-35" style="rounded=0;orthogonalLoop=1;jettySize=auto;html=1;entryX=0.5;entryY=1;entryDx=0;entryDy=0;endArrow=none;endFill=0;" parent="1" source="Oqr2WZXRn9E8SFFf8cUU-31" target="Oqr2WZXRn9E8SFFf8cUU-5" edge="1">
          <mxGeometry relative="1" as="geometry" />
        </mxCell>
        <mxCell id="Oqr2WZXRn9E8SFFf8cUU-31" value="firstNames" style="ellipse;whiteSpace=wrap;html=1;" parent="1" vertex="1">
          <mxGeometry x="356" y="791" width="70" height="40" as="geometry" />
        </mxCell>
        <mxCell id="Oqr2WZXRn9E8SFFf8cUU-36" style="rounded=0;orthogonalLoop=1;jettySize=auto;html=1;entryX=0.5;entryY=1;entryDx=0;entryDy=0;endArrow=none;endFill=0;" parent="1" source="Oqr2WZXRn9E8SFFf8cUU-32" target="Oqr2WZXRn9E8SFFf8cUU-5" edge="1">
          <mxGeometry relative="1" as="geometry" />
        </mxCell>
        <mxCell id="Oqr2WZXRn9E8SFFf8cUU-32" value="lastNames" style="ellipse;whiteSpace=wrap;html=1;" parent="1" vertex="1">
          <mxGeometry x="436" y="791" width="80" height="40" as="geometry" />
        </mxCell>
        <mxCell id="Oqr2WZXRn9E8SFFf8cUU-46" style="rounded=0;orthogonalLoop=1;jettySize=auto;html=1;endArrow=none;endFill=0;" parent="1" source="Oqr2WZXRn9E8SFFf8cUU-37" edge="1">
          <mxGeometry relative="1" as="geometry">
            <mxPoint x="440" y="390" as="targetPoint" />
          </mxGeometry>
        </mxCell>
        <mxCell id="Oqr2WZXRn9E8SFFf8cUU-37" value="&lt;u&gt;stdKey&amp;nbsp;&lt;/u&gt;" style="ellipse;whiteSpace=wrap;html=1;" parent="1" vertex="1">
          <mxGeometry x="313.75" y="260" width="72.5" height="37.5" as="geometry" />
        </mxCell>
        <mxCell id="Oqr2WZXRn9E8SFFf8cUU-44" style="rounded=0;orthogonalLoop=1;jettySize=auto;html=1;entryX=1;entryY=0.5;entryDx=0;entryDy=0;endArrow=none;endFill=0;" parent="1" source="Oqr2WZXRn9E8SFFf8cUU-38" target="Oqr2WZXRn9E8SFFf8cUU-6" edge="1">
          <mxGeometry relative="1" as="geometry" />
        </mxCell>
        <mxCell id="Oqr2WZXRn9E8SFFf8cUU-38" value="stdNum" style="ellipse;whiteSpace=wrap;html=1;" parent="1" vertex="1">
          <mxGeometry x="600" y="345" width="70" height="40" as="geometry" />
        </mxCell>
        <mxCell id="Oqr2WZXRn9E8SFFf8cUU-45" style="rounded=0;orthogonalLoop=1;jettySize=auto;html=1;entryX=1;entryY=0.5;entryDx=0;entryDy=0;endArrow=none;endFill=0;" parent="1" source="Oqr2WZXRn9E8SFFf8cUU-39" target="Oqr2WZXRn9E8SFFf8cUU-6" edge="1">
          <mxGeometry relative="1" as="geometry" />
        </mxCell>
        <mxCell id="Oqr2WZXRn9E8SFFf8cUU-39" value="title" style="ellipse;whiteSpace=wrap;html=1;" parent="1" vertex="1">
          <mxGeometry x="567.5" y="297.5" width="60" height="30" as="geometry" />
        </mxCell>
        <mxCell id="Oqr2WZXRn9E8SFFf8cUU-43" style="rounded=0;orthogonalLoop=1;jettySize=auto;html=1;entryX=1;entryY=0.5;entryDx=0;entryDy=0;endArrow=none;endFill=0;" parent="1" source="Oqr2WZXRn9E8SFFf8cUU-40" target="Oqr2WZXRn9E8SFFf8cUU-6" edge="1">
          <mxGeometry relative="1" as="geometry" />
        </mxCell>
        <mxCell id="Oqr2WZXRn9E8SFFf8cUU-40" value="firstNames" style="ellipse;whiteSpace=wrap;html=1;" parent="1" vertex="1">
          <mxGeometry x="590" y="405" width="80" height="40" as="geometry" />
        </mxCell>
        <mxCell id="Oqr2WZXRn9E8SFFf8cUU-47" style="rounded=0;orthogonalLoop=1;jettySize=auto;html=1;entryX=0;entryY=0.5;entryDx=0;entryDy=0;endArrow=none;endFill=0;" parent="1" source="Oqr2WZXRn9E8SFFf8cUU-41" target="Oqr2WZXRn9E8SFFf8cUU-6" edge="1">
          <mxGeometry relative="1" as="geometry" />
        </mxCell>
        <mxCell id="Oqr2WZXRn9E8SFFf8cUU-41" value="lastNames" style="ellipse;whiteSpace=wrap;html=1;" parent="1" vertex="1">
          <mxGeometry x="310" y="310" width="80" height="40" as="geometry" />
        </mxCell>
        <mxCell id="Oqr2WZXRn9E8SFFf8cUU-48" style="rounded=0;orthogonalLoop=1;jettySize=auto;html=1;entryX=0;entryY=0.5;entryDx=0;entryDy=0;endArrow=none;endFill=0;" parent="1" source="Oqr2WZXRn9E8SFFf8cUU-42" target="Oqr2WZXRn9E8SFFf8cUU-6" edge="1">
          <mxGeometry relative="1" as="geometry" />
        </mxCell>
        <mxCell id="Oqr2WZXRn9E8SFFf8cUU-42" value="degreeCode (FK)&amp;nbsp;" style="ellipse;whiteSpace=wrap;html=1;" parent="1" vertex="1">
          <mxGeometry x="300" y="375" width="100" height="40" as="geometry" />
        </mxCell>
        <mxCell id="Oqr2WZXRn9E8SFFf8cUU-49" value="courseRegistration&amp;nbsp;" style="ellipse;whiteSpace=wrap;html=1;" parent="1" vertex="1">
          <mxGeometry x="660" y="545" width="120" height="40" as="geometry" />
        </mxCell>
        <mxCell id="Oqr2WZXRn9E8SFFf8cUU-53" style="rounded=0;orthogonalLoop=1;jettySize=auto;html=1;entryX=0;entryY=0.5;entryDx=0;entryDy=0;endArrow=none;endFill=0;exitX=1;exitY=0.5;exitDx=0;exitDy=0;" parent="1" source="Oqr2WZXRn9E8SFFf8cUU-52" target="Oqr2WZXRn9E8SFFf8cUU-2" edge="1">
          <mxGeometry relative="1" as="geometry" />
        </mxCell>
        <mxCell id="Oqr2WZXRn9E8SFFf8cUU-52" value="supKey&lt;span style=&quot;background-color: initial;&quot;&gt;&amp;nbsp;&lt;/span&gt;" style="ellipse;whiteSpace=wrap;html=1;" parent="1" vertex="1">
          <mxGeometry x="103" y="540" width="73.5" height="40" as="geometry" />
        </mxCell>
        <mxCell id="Oqr2WZXRn9E8SFFf8cUU-55" style="rounded=0;orthogonalLoop=1;jettySize=auto;html=1;entryX=0;entryY=0.5;entryDx=0;entryDy=0;endArrow=none;endFill=0;exitX=1;exitY=0.5;exitDx=0;exitDy=0;" parent="1" source="Oqr2WZXRn9E8SFFf8cUU-54" target="Oqr2WZXRn9E8SFFf8cUU-2" edge="1">
          <mxGeometry relative="1" as="geometry" />
        </mxCell>
        <mxCell id="Oqr2WZXRn9E8SFFf8cUU-60" value="1" style="edgeLabel;html=1;align=center;verticalAlign=middle;resizable=0;points=[];" parent="Oqr2WZXRn9E8SFFf8cUU-55" vertex="1" connectable="0">
          <mxGeometry x="0.656" relative="1" as="geometry">
            <mxPoint y="-1" as="offset" />
          </mxGeometry>
        </mxCell>
        <mxCell id="Oqr2WZXRn9E8SFFf8cUU-61" value="m" style="edgeLabel;html=1;align=center;verticalAlign=middle;resizable=0;points=[];" parent="Oqr2WZXRn9E8SFFf8cUU-55" vertex="1" connectable="0">
          <mxGeometry x="-0.688" y="1" relative="1" as="geometry">
            <mxPoint as="offset" />
          </mxGeometry>
        </mxCell>
        <mxCell id="Oqr2WZXRn9E8SFFf8cUU-54" value="courseRegistration&amp;nbsp;" style="ellipse;whiteSpace=wrap;html=1;" parent="1" vertex="1">
          <mxGeometry x="80" y="440" width="120" height="40" as="geometry" />
        </mxCell>
        <mxCell id="Oqr2WZXRn9E8SFFf8cUU-57" style="rounded=0;orthogonalLoop=1;jettySize=auto;html=1;endArrow=none;endFill=0;exitX=1;exitY=0.5;exitDx=0;exitDy=0;entryX=0;entryY=0.5;entryDx=0;entryDy=0;" parent="1" source="Oqr2WZXRn9E8SFFf8cUU-56" target="Oqr2WZXRn9E8SFFf8cUU-2" edge="1">
          <mxGeometry relative="1" as="geometry">
            <mxPoint x="408.47612709518444" y="636.9564077662519" as="sourcePoint" />
            <mxPoint x="290" y="565" as="targetPoint" />
          </mxGeometry>
        </mxCell>
        <mxCell id="Oqr2WZXRn9E8SFFf8cUU-56" value="category" style="ellipse;whiteSpace=wrap;html=1;" parent="1" vertex="1">
          <mxGeometry x="103.5" y="495" width="73" height="30" as="geometry" />
        </mxCell>
        <mxCell id="Oqr2WZXRn9E8SFFf8cUU-64" value="" style="edgeStyle=orthogonalEdgeStyle;fontSize=12;html=1;endArrow=ERmany;endFill=0;rounded=0;startArrow=ERone;startFill=0;entryX=0.5;entryY=1;entryDx=0;entryDy=0;exitX=0.5;exitY=0;exitDx=0;exitDy=0;" parent="1" source="Oqr2WZXRn9E8SFFf8cUU-5" target="Oqr2WZXRn9E8SFFf8cUU-2" edge="1">
          <mxGeometry width="100" height="100" relative="1" as="geometry">
            <mxPoint x="660" y="805" as="sourcePoint" />
            <mxPoint x="760" y="705" as="targetPoint" />
          </mxGeometry>
        </mxCell>
        <mxCell id="Oqr2WZXRn9E8SFFf8cUU-68" value="DeletedUndergrad" style="rounded=0;whiteSpace=wrap;html=1;" parent="1" vertex="1">
          <mxGeometry x="116.5" y="1000" width="120" height="60" as="geometry" />
        </mxCell>
        <mxCell id="Oqr2WZXRn9E8SFFf8cUU-73" style="rounded=0;orthogonalLoop=1;jettySize=auto;html=1;endArrow=none;endFill=0;" parent="1" source="Oqr2WZXRn9E8SFFf8cUU-70" edge="1">
          <mxGeometry relative="1" as="geometry">
            <mxPoint x="176.5" y="1059" as="targetPoint" />
          </mxGeometry>
        </mxCell>
        <mxCell id="Oqr2WZXRn9E8SFFf8cUU-70" value="DateAndTime" style="ellipse;whiteSpace=wrap;html=1;" parent="1" vertex="1">
          <mxGeometry x="90" y="1090" width="90" height="40" as="geometry" />
        </mxCell>
        <mxCell id="Oqr2WZXRn9E8SFFf8cUU-72" style="rounded=0;orthogonalLoop=1;jettySize=auto;html=1;entryX=0.5;entryY=1;entryDx=0;entryDy=0;endArrow=none;endFill=0;" parent="1" source="Oqr2WZXRn9E8SFFf8cUU-71" target="Oqr2WZXRn9E8SFFf8cUU-68" edge="1">
          <mxGeometry relative="1" as="geometry" />
        </mxCell>
        <mxCell id="Oqr2WZXRn9E8SFFf8cUU-71" value="delUsrId" style="ellipse;whiteSpace=wrap;html=1;" parent="1" vertex="1">
          <mxGeometry x="196.5" y="1090" width="70" height="40" as="geometry" />
        </mxCell>
        <mxCell id="Oqr2WZXRn9E8SFFf8cUU-78" value="" style="edgeStyle=orthogonalEdgeStyle;fontSize=12;html=1;endArrow=ERoneToMany;startArrow=ERmandOne;rounded=0;exitX=0.5;exitY=0;exitDx=0;exitDy=0;entryX=0.5;entryY=1;entryDx=0;entryDy=0;" parent="1" source="Oqr2WZXRn9E8SFFf8cUU-54" target="Oqr2WZXRn9E8SFFf8cUU-4" edge="1">
          <mxGeometry width="100" height="100" relative="1" as="geometry">
            <mxPoint x="360" y="480" as="sourcePoint" />
            <mxPoint x="460" y="380" as="targetPoint" />
          </mxGeometry>
        </mxCell>
        <mxCell id="Oqr2WZXRn9E8SFFf8cUU-79" value="" style="edgeStyle=orthogonalEdgeStyle;fontSize=12;html=1;endArrow=ERoneToMany;startArrow=ERmandOne;rounded=0;exitX=0.5;exitY=0;exitDx=0;exitDy=0;entryX=0.5;entryY=1;entryDx=0;entryDy=0;" parent="1" source="Oqr2WZXRn9E8SFFf8cUU-49" target="Oqr2WZXRn9E8SFFf8cUU-4" edge="1">
          <mxGeometry width="100" height="100" relative="1" as="geometry">
            <mxPoint x="150" y="450" as="sourcePoint" />
            <mxPoint x="230" y="180" as="targetPoint" />
            <Array as="points">
              <mxPoint x="720" y="460" />
              <mxPoint x="220" y="460" />
            </Array>
          </mxGeometry>
        </mxCell>
        <mxCell id="rXQ4jovh4Q-FGvQLZiqD-12" style="rounded=0;orthogonalLoop=1;jettySize=auto;html=1;entryX=0.5;entryY=0;entryDx=0;entryDy=0;endArrow=none;endFill=0;" edge="1" parent="1" source="rXQ4jovh4Q-FGvQLZiqD-2" target="Oqr2WZXRn9E8SFFf8cUU-68">
          <mxGeometry relative="1" as="geometry" />
        </mxCell>
        <mxCell id="rXQ4jovh4Q-FGvQLZiqD-2" value="lastNames" style="ellipse;whiteSpace=wrap;html=1;" vertex="1" parent="1">
          <mxGeometry x="136.5" y="941" width="80" height="40" as="geometry" />
        </mxCell>
        <mxCell id="rXQ4jovh4Q-FGvQLZiqD-11" style="rounded=0;orthogonalLoop=1;jettySize=auto;html=1;entryX=0;entryY=0;entryDx=0;entryDy=0;endArrow=none;endFill=0;" edge="1" parent="1" source="rXQ4jovh4Q-FGvQLZiqD-3" target="Oqr2WZXRn9E8SFFf8cUU-68">
          <mxGeometry relative="1" as="geometry" />
        </mxCell>
        <mxCell id="rXQ4jovh4Q-FGvQLZiqD-3" value="degreeCode (FK)&amp;nbsp;" style="ellipse;whiteSpace=wrap;html=1;" vertex="1" parent="1">
          <mxGeometry x="20.5" y="941" width="100" height="40" as="geometry" />
        </mxCell>
        <mxCell id="rXQ4jovh4Q-FGvQLZiqD-17" style="rounded=0;orthogonalLoop=1;jettySize=auto;html=1;entryX=1;entryY=0.5;entryDx=0;entryDy=0;endArrow=none;endFill=0;" edge="1" parent="1" source="rXQ4jovh4Q-FGvQLZiqD-5" target="Oqr2WZXRn9E8SFFf8cUU-68">
          <mxGeometry relative="1" as="geometry" />
        </mxCell>
        <mxCell id="rXQ4jovh4Q-FGvQLZiqD-5" value="stdNum" style="ellipse;whiteSpace=wrap;html=1;" vertex="1" parent="1">
          <mxGeometry x="266.5" y="1040" width="70" height="40" as="geometry" />
        </mxCell>
        <mxCell id="rXQ4jovh4Q-FGvQLZiqD-16" style="rounded=0;orthogonalLoop=1;jettySize=auto;html=1;entryX=1;entryY=0.5;entryDx=0;entryDy=0;endArrow=none;endFill=0;" edge="1" parent="1" source="rXQ4jovh4Q-FGvQLZiqD-7" target="Oqr2WZXRn9E8SFFf8cUU-68">
          <mxGeometry relative="1" as="geometry" />
        </mxCell>
        <mxCell id="rXQ4jovh4Q-FGvQLZiqD-7" value="title" style="ellipse;whiteSpace=wrap;html=1;" vertex="1" parent="1">
          <mxGeometry x="271.5" y="1000" width="60" height="30" as="geometry" />
        </mxCell>
        <mxCell id="rXQ4jovh4Q-FGvQLZiqD-10" style="rounded=0;orthogonalLoop=1;jettySize=auto;html=1;entryX=0;entryY=0.5;entryDx=0;entryDy=0;endArrow=none;endFill=0;" edge="1" parent="1" source="rXQ4jovh4Q-FGvQLZiqD-9" target="Oqr2WZXRn9E8SFFf8cUU-68">
          <mxGeometry relative="1" as="geometry" />
        </mxCell>
        <mxCell id="rXQ4jovh4Q-FGvQLZiqD-9" value="firstNames" style="ellipse;whiteSpace=wrap;html=1;" vertex="1" parent="1">
          <mxGeometry x="10" y="1010" width="80" height="40" as="geometry" />
        </mxCell>
        <mxCell id="rXQ4jovh4Q-FGvQLZiqD-18" value="DeletedPostgrad" style="rounded=0;whiteSpace=wrap;html=1;" vertex="1" parent="1">
          <mxGeometry x="542.5" y="1010" width="120" height="60" as="geometry" />
        </mxCell>
        <mxCell id="rXQ4jovh4Q-FGvQLZiqD-19" style="rounded=0;orthogonalLoop=1;jettySize=auto;html=1;endArrow=none;endFill=0;" edge="1" parent="1" source="rXQ4jovh4Q-FGvQLZiqD-20">
          <mxGeometry relative="1" as="geometry">
            <mxPoint x="602.5" y="1069" as="targetPoint" />
          </mxGeometry>
        </mxCell>
        <mxCell id="rXQ4jovh4Q-FGvQLZiqD-20" value="DateAndTime" style="ellipse;whiteSpace=wrap;html=1;" vertex="1" parent="1">
          <mxGeometry x="516" y="1100" width="90" height="40" as="geometry" />
        </mxCell>
        <mxCell id="rXQ4jovh4Q-FGvQLZiqD-21" style="rounded=0;orthogonalLoop=1;jettySize=auto;html=1;entryX=0.5;entryY=1;entryDx=0;entryDy=0;endArrow=none;endFill=0;" edge="1" parent="1" source="rXQ4jovh4Q-FGvQLZiqD-22" target="rXQ4jovh4Q-FGvQLZiqD-18">
          <mxGeometry relative="1" as="geometry" />
        </mxCell>
        <mxCell id="rXQ4jovh4Q-FGvQLZiqD-22" value="delUsrId" style="ellipse;whiteSpace=wrap;html=1;" vertex="1" parent="1">
          <mxGeometry x="622.5" y="1100" width="70" height="40" as="geometry" />
        </mxCell>
        <mxCell id="rXQ4jovh4Q-FGvQLZiqD-25" style="rounded=0;orthogonalLoop=1;jettySize=auto;html=1;entryX=0.5;entryY=0;entryDx=0;entryDy=0;endArrow=none;endFill=0;" edge="1" parent="1" source="rXQ4jovh4Q-FGvQLZiqD-26" target="rXQ4jovh4Q-FGvQLZiqD-18">
          <mxGeometry relative="1" as="geometry" />
        </mxCell>
        <mxCell id="rXQ4jovh4Q-FGvQLZiqD-26" value="lastNames" style="ellipse;whiteSpace=wrap;html=1;" vertex="1" parent="1">
          <mxGeometry x="562.5" y="951" width="80" height="40" as="geometry" />
        </mxCell>
        <mxCell id="rXQ4jovh4Q-FGvQLZiqD-27" style="rounded=0;orthogonalLoop=1;jettySize=auto;html=1;entryX=0;entryY=0;entryDx=0;entryDy=0;endArrow=none;endFill=0;" edge="1" parent="1" source="rXQ4jovh4Q-FGvQLZiqD-28" target="rXQ4jovh4Q-FGvQLZiqD-18">
          <mxGeometry relative="1" as="geometry" />
        </mxCell>
        <mxCell id="rXQ4jovh4Q-FGvQLZiqD-28" value="degreeCode (FK)&amp;nbsp;" style="ellipse;whiteSpace=wrap;html=1;" vertex="1" parent="1">
          <mxGeometry x="446.5" y="951" width="100" height="40" as="geometry" />
        </mxCell>
        <mxCell id="rXQ4jovh4Q-FGvQLZiqD-29" style="rounded=0;orthogonalLoop=1;jettySize=auto;html=1;entryX=1;entryY=0.5;entryDx=0;entryDy=0;endArrow=none;endFill=0;" edge="1" parent="1" source="rXQ4jovh4Q-FGvQLZiqD-30" target="rXQ4jovh4Q-FGvQLZiqD-18">
          <mxGeometry relative="1" as="geometry" />
        </mxCell>
        <mxCell id="rXQ4jovh4Q-FGvQLZiqD-30" value="stdNum" style="ellipse;whiteSpace=wrap;html=1;" vertex="1" parent="1">
          <mxGeometry x="692.5" y="1050" width="70" height="40" as="geometry" />
        </mxCell>
        <mxCell id="rXQ4jovh4Q-FGvQLZiqD-31" style="rounded=0;orthogonalLoop=1;jettySize=auto;html=1;entryX=1;entryY=0.5;entryDx=0;entryDy=0;endArrow=none;endFill=0;" edge="1" parent="1" source="rXQ4jovh4Q-FGvQLZiqD-32" target="rXQ4jovh4Q-FGvQLZiqD-18">
          <mxGeometry relative="1" as="geometry" />
        </mxCell>
        <mxCell id="rXQ4jovh4Q-FGvQLZiqD-32" value="title" style="ellipse;whiteSpace=wrap;html=1;" vertex="1" parent="1">
          <mxGeometry x="697.5" y="1010" width="60" height="30" as="geometry" />
        </mxCell>
        <mxCell id="rXQ4jovh4Q-FGvQLZiqD-33" style="rounded=0;orthogonalLoop=1;jettySize=auto;html=1;entryX=0;entryY=0.5;entryDx=0;entryDy=0;endArrow=none;endFill=0;" edge="1" parent="1" source="rXQ4jovh4Q-FGvQLZiqD-34" target="rXQ4jovh4Q-FGvQLZiqD-18">
          <mxGeometry relative="1" as="geometry" />
        </mxCell>
        <mxCell id="rXQ4jovh4Q-FGvQLZiqD-34" value="firstNames" style="ellipse;whiteSpace=wrap;html=1;" vertex="1" parent="1">
          <mxGeometry x="436" y="1020" width="80" height="40" as="geometry" />
        </mxCell>
      </root>
    </mxGraphModel>
  </diagram>
</mxfile>
